<svg width="71" height="21" viewBox="0 0 71 21" fill="none" xmlns="http://www.w3.org/2000/svg">
<g clip-path="url(#clip0_5401_1003)">
<path d="M1.21875 19.5433L5.10058 0.429688H9.54597L13.6535 19.5433H9.88464L8.24144 10.4429C8.08564 9.57943 7.94226 8.77191 7.8106 8.01997C7.6793 7.26841 7.55971 6.57608 7.45255 5.94265C7.34503 5.30957 7.243 4.69771 7.14645 4.10706H7.53302C7.44964 4.67102 7.35856 5.25691 7.25909 5.86548C7.15997 6.47405 7.04369 7.16198 6.91093 7.92964C6.77817 8.6973 6.63626 9.50775 6.48631 10.3625L4.85956 19.5433H1.21949H1.21875ZM4.29524 17.0465V12.3487H10.5934V17.0465H4.29524Z" fill="black"/>
<path d="M18.6805 19.9994C17.5313 19.9994 16.5417 19.5631 15.7107 18.6908C14.8798 17.8186 14.2493 16.6208 13.8181 15.0972C13.3873 13.5736 13.1719 11.8525 13.1719 9.93277C13.1719 7.99552 13.4096 6.27623 13.8847 4.77493C14.3597 3.27362 15.0477 2.10293 15.9485 1.26176C16.8489 0.42059 17.9157 0 19.1478 0C20.1704 0 21.0862 0.289658 21.8941 0.868969C22.702 1.44865 23.3552 2.26823 23.8533 3.32848C24.351 4.38872 24.6619 5.62378 24.7851 7.03329H21.0646C20.9706 6.60831 20.8338 6.25612 20.6539 5.97598C20.474 5.69656 20.2618 5.48956 20.0175 5.35534C19.7732 5.22111 19.5048 5.15382 19.2122 5.15382C18.7744 5.15382 18.3871 5.31035 18.0503 5.62378C17.7135 5.9372 17.4439 6.45581 17.2428 7.18068C17.0413 7.90555 16.9407 8.85863 16.9407 10.0396C16.9407 11.1225 17.0288 12.024 17.2047 12.7441C17.3806 13.4646 17.6389 14.0037 17.9797 14.3617C18.3209 14.7198 18.7368 14.8982 19.2279 14.8982C19.6149 14.8982 19.9568 14.7944 20.2549 14.5863C20.553 14.3782 20.8006 14.0406 20.9977 13.5728C21.1952 13.1054 21.3247 12.5002 21.3865 11.7574H22.9646V14.4418C22.785 15.9047 22.4632 17.048 22.0001 17.8712C21.5371 18.6945 21.0215 19.2548 20.4539 19.5525C19.8859 19.8498 19.2949 19.9987 18.6801 19.9987L18.6805 19.9994ZM22.4496 19.543L22.0309 16.3216V12.6168H19.2444V8.4022H24.8012V19.543H22.4496Z" fill="black"/>
<path d="M25.9297 19.5433V0.429688H35.3362V5.63763H29.5698V14.3353H35.3362V19.5433H25.9297ZM27.9756 12.5367V7.51637H34.9017V12.5367H27.9756Z" fill="black"/>
<path d="M36.3828 19.5437V0.430056H40.1681L42.5362 7.22196C42.7775 7.91977 43.0379 8.74119 43.3174 9.68513C43.5964 10.6291 43.8729 11.6132 44.1468 12.6376C44.171 12.7272 44.1951 12.8179 44.2192 12.9094C44.2434 13.0012 44.2675 13.0919 44.2916 13.1811L43.7924 16.1073C43.7763 15.8118 43.7621 15.5188 43.75 15.2281C43.7379 14.9373 43.7266 14.6488 43.716 14.3624C43.6652 13.0513 43.6326 11.8246 43.6194 10.6814C43.6059 9.53811 43.5993 8.37619 43.5993 7.1949V0.429688H47.1429V19.5433H43.3576L40.9416 12.7517C40.641 11.9106 40.3784 11.1535 40.1545 10.4798C39.9304 9.80691 39.712 9.11313 39.4999 8.39923C39.2878 7.6857 39.0757 6.91731 38.8635 6.09406L39.7332 5.47671C39.7896 6.45211 39.832 7.35143 39.8601 8.17468C39.8883 8.99793 39.9062 9.75644 39.9143 10.4499C39.9227 11.1436 39.9263 11.9197 39.9263 12.7788V19.5437H36.3828Z" fill="black"/>
<path d="M53.7958 19.9998C52.6898 19.9998 51.7053 19.5872 50.8422 18.7618C49.9791 17.936 49.305 16.7649 48.8204 15.2482C48.3359 13.7316 48.0938 11.9688 48.0938 9.95983C48.0938 7.95089 48.3348 6.18919 48.8164 4.68788C49.2981 3.18657 49.9856 2.03015 50.878 1.21823C51.7704 0.405954 52.8182 0 54.0211 0C55.0758 0 55.9887 0.317817 56.7593 0.953084C57.5295 1.58835 58.1479 2.48548 58.6135 3.6441C59.0791 4.80309 59.398 6.17456 59.5699 7.75816H55.8168C55.736 7.1719 55.6094 6.68548 55.4361 6.29817C55.2627 5.91087 55.051 5.62377 54.7997 5.43579C54.5485 5.24781 54.2621 5.15382 53.9399 5.15382C53.5131 5.15382 53.1444 5.32607 52.8347 5.67095C52.5245 6.01547 52.285 6.54541 52.116 7.2615C51.947 7.97722 51.8622 8.87655 51.8622 9.95946C51.8622 11.0555 51.9514 11.9684 52.1303 12.6973C52.3087 13.4266 52.5571 13.9667 52.8752 14.3182C53.1934 14.6693 53.5643 14.8448 53.9885 14.8448C54.2921 14.8448 54.5678 14.7556 54.8162 14.5764C55.0645 14.3976 55.2755 14.1189 55.4503 13.7407C55.6248 13.3629 55.751 12.8805 55.8289 12.2946H59.5414C59.3907 13.7755 59.0542 15.0997 58.5309 16.2675C58.0071 17.4353 57.3371 18.3492 56.5212 19.0094C55.7049 19.6691 54.7961 19.999 53.7951 19.999L53.7958 19.9998Z" fill="black"/>
<path d="M62.5726 19.5433V9.7451L63.3136 14.4696L58.5781 0.429688H62.5082L63.9741 5.28873C64.0867 5.66031 64.1909 6.01908 64.2864 6.36579C64.3815 6.7125 64.4762 7.06945 64.5702 7.43627H64.3288C64.4067 7.06945 64.4872 6.71031 64.5702 6.35921C64.6536 6.00811 64.745 5.65116 64.8441 5.28873L66.1812 0.429688H70.063L65.4885 14.4696L66.2134 9.7451V19.5433H62.5733H62.5726Z" fill="black"/>
</g>
<defs>
<clipPath id="clip0_5401_1003">
<rect width="70" height="21" fill="white" transform="translate(0.90625)"/>
</clipPath>
</defs>
</svg>
