<svg width="111" height="20" viewBox="0 0 111 20" fill="none" xmlns="http://www.w3.org/2000/svg">
<g clip-path="url(#clip0_5401_992)">
<path d="M1.51562 19.5433V0.429688H7.10502C8.03652 0.429688 8.84076 0.709465 9.51698 1.26866C10.1936 1.82786 10.7096 2.62002 11.0655 3.64442C11.421 4.66882 11.5991 5.8706 11.5991 7.24829C11.5991 8.62598 11.4213 9.82776 11.0655 10.8522C10.7096 11.8766 10.1936 12.6687 9.51698 13.2279C8.84076 13.7871 8.03652 14.0669 7.10502 14.0669H5.15607V19.5433H1.51562ZM6.62153 9.07363C6.88193 9.07363 7.10502 9.00561 7.29008 8.86882C7.47514 8.73241 7.61667 8.5276 7.71468 8.25513C7.81233 7.98194 7.86171 7.64657 7.86171 7.24829C7.86171 6.85002 7.81233 6.51464 7.71468 6.24144C7.61667 5.96861 7.47477 5.76381 7.29008 5.62776C7.10466 5.49098 6.88193 5.42295 6.62153 5.42295H5.1557V9.07363H6.62153Z" fill="black"/>
<path d="M12.5156 19.5433V0.429688H18.1694C19.2618 0.429688 20.1352 0.680207 20.7887 1.18125C21.4423 1.6823 21.9049 2.34792 22.1763 3.17775C22.4473 4.00795 22.5826 4.96177 22.5826 6.04029C22.5826 7.18538 22.4396 8.13773 22.1536 8.89589C21.868 9.6544 21.4383 10.2227 20.8652 10.6009C20.2921 10.9787 19.576 11.1678 18.7169 11.1678V10.0402C19.5972 10.0761 20.3012 10.2575 20.829 10.5841C21.3567 10.9107 21.7488 11.4117 22.0066 12.0872C22.2644 12.7631 22.4188 13.6642 22.4696 14.7918L22.5987 17.6104C22.6148 17.9593 22.6327 18.2446 22.6528 18.4662C22.6733 18.6879 22.7 18.8824 22.7337 19.0499C22.7673 19.2178 22.8134 19.3824 22.8726 19.5433H19.1517C19.0929 19.3377 19.0464 19.1114 19.0128 18.8656C18.9791 18.6198 18.9546 18.3331 18.9385 18.0065C18.9356 17.944 18.9338 17.8792 18.9323 17.8119C18.9308 17.7446 18.929 17.6777 18.9265 17.6104L18.8778 15.7046C18.8621 15.0825 18.8076 14.602 18.7151 14.2615C18.6222 13.9217 18.4737 13.6789 18.2678 13.5333C18.0626 13.3881 17.7773 13.315 17.412 13.315H14.6094V8.91235H17.6054C17.8816 8.91235 18.1127 8.84432 18.2981 8.70754C18.4836 8.57112 18.6236 8.36193 18.7191 8.07995C18.8142 7.79798 18.8621 7.4403 18.8621 7.00618C18.8621 6.57206 18.8145 6.21402 18.7191 5.93204C18.6236 5.65007 18.4836 5.44124 18.2981 5.30445C18.1127 5.16804 17.8819 5.09965 17.6054 5.09965H14.6741L16.1557 2.76412V19.5422H12.5156V19.5433Z" fill="black"/>
<path d="M29.3694 19.999C28.1771 19.999 27.1224 19.5909 26.2044 18.7742C25.2864 17.9575 24.5722 16.7934 24.062 15.2812C23.5521 13.7689 23.2969 12.0039 23.2969 9.98616C23.2969 7.96845 23.5532 6.21918 24.066 4.71129C24.5787 3.2034 25.2941 2.04112 26.2121 1.22482C27.13 0.408516 28.1826 0 29.369 0C30.5554 0 31.608 0.408516 32.526 1.22482C33.444 2.04149 34.1593 3.2034 34.6721 4.71129C35.1844 6.21918 35.4412 7.97722 35.4412 9.98616C35.4412 11.9951 35.1855 13.7689 34.6743 15.2812C34.163 16.7934 33.4472 17.9579 32.5278 18.7742C31.6084 19.5909 30.5554 19.999 29.369 19.999H29.3694ZM29.3694 14.8448C29.8335 14.8448 30.2376 14.6748 30.5814 14.335C30.9248 13.9949 31.1925 13.4639 31.3845 12.7408C31.5762 12.0185 31.6724 11.1002 31.6724 9.98616C31.6724 8.88093 31.5762 7.96918 31.3845 7.25126C31.1925 6.53297 30.9248 6.00413 30.5814 5.66401C30.2376 5.32425 29.8335 5.15382 29.3694 5.15382C28.9053 5.15382 28.5012 5.32425 28.1574 5.66401C27.8136 6.00377 27.5459 6.53297 27.3542 7.25126C27.1622 7.96955 27.0661 8.88093 27.0661 9.98616C27.0661 11.1002 27.1622 12.0185 27.3542 12.7408C27.5459 13.4635 27.8136 13.9949 28.1574 14.335C28.5012 14.6748 28.9049 14.8448 29.3694 14.8448Z" fill="black"/>
<path d="M36.3906 19.5433V0.429688H41.4808C42.7345 0.429688 43.8039 0.78773 44.6901 1.50346C45.5758 2.21955 46.2532 3.28967 46.7217 4.7149C47.1902 6.14014 47.4242 7.89745 47.4242 9.98685C47.4242 12.0762 47.188 13.8336 46.7154 15.2584C46.2429 16.6837 45.5597 17.7542 44.6659 18.4699C43.7721 19.1856 42.6943 19.5437 41.4325 19.5437H36.391L36.3906 19.5433ZM41.2552 14.4963C41.7705 14.4963 42.2053 14.3467 42.5597 14.0468C42.9141 13.7469 43.1855 13.2649 43.3734 12.6003C43.5614 11.9362 43.6554 11.0646 43.6554 9.98649C43.6554 8.90832 43.5614 8.03679 43.3734 7.37227C43.1855 6.70811 42.9141 6.22572 42.5597 5.92619C42.2053 5.62629 41.7705 5.47635 41.2552 5.47635H40.0311V14.4963H41.2552Z" fill="black"/>
<path d="M53.462 19.9993C52.3506 19.9993 51.4012 19.6852 50.613 19.0565C49.8249 18.4278 49.2277 17.5322 48.8213 16.3688C48.4146 15.2054 48.2109 13.8295 48.2109 12.2416V0.429688H51.851V12.0803C51.851 12.6128 51.9033 13.0846 52.0083 13.4964C52.1129 13.9078 52.2844 14.2359 52.5236 14.4794C52.7624 14.7237 53.0755 14.8452 53.462 14.8452C53.8486 14.8452 54.1613 14.7234 54.4001 14.4794C54.6389 14.2359 54.8108 13.9078 54.9154 13.4964C55.02 13.0846 55.0723 12.6128 55.0723 12.0803V0.429688H58.7124V12.2416C58.7124 13.8299 58.5087 15.2058 58.1024 16.3688C57.6957 17.5322 57.0981 18.4282 56.3103 19.0565C55.5225 19.6852 54.5731 19.9993 53.4617 19.9993H53.462Z" fill="black"/>
<path d="M65.202 19.9998C64.0961 19.9998 63.1115 19.5872 62.2484 18.7618C61.3853 17.936 60.7113 16.7649 60.2267 15.2482C59.7421 13.7316 59.5 11.9688 59.5 9.95983C59.5 7.95089 59.741 6.18919 60.2227 4.68788C60.7043 3.18657 61.3919 2.03015 62.2843 1.21823C63.1767 0.405954 64.2245 0 65.4273 0C66.4821 0 67.3949 0.317817 68.1655 0.953084C68.9357 1.58835 69.5542 2.48548 70.0198 3.6441C70.4853 4.80309 70.8042 6.17456 70.9761 7.75816H67.223C67.1422 7.1719 67.0157 6.68548 66.8423 6.29817C66.669 5.91087 66.4572 5.62377 66.206 5.43579C65.9547 5.24781 65.6683 5.15382 65.3461 5.15382C64.9193 5.15382 64.5507 5.32607 64.2409 5.67095C63.9308 6.01547 63.6912 6.54541 63.5223 7.2615C63.3533 7.97722 63.2684 8.87655 63.2684 9.95946C63.2684 11.0555 63.3577 11.9684 63.5365 12.6973C63.715 13.4266 63.9633 13.9667 64.2815 14.3182C64.5997 14.6693 64.9705 14.8448 65.3948 14.8448C65.6983 14.8448 65.9741 14.7556 66.2224 14.5764C66.4708 14.3976 66.6818 14.1189 66.8566 13.7407C67.031 13.3629 67.1572 12.8805 67.2351 12.2946H70.9476C70.7969 13.7755 70.4605 15.0997 69.9371 16.2675C69.4134 17.4353 68.7434 18.3492 67.9274 19.0094C67.1111 19.6691 66.2023 19.999 65.2013 19.999L65.202 19.9998Z" fill="black"/>
<path d="M70.9375 5.63763V0.429688H80.924V5.63763H70.9375ZM74.1102 19.5433V3.06036H77.7506V19.5433H74.1102Z" fill="black"/>
<path d="M81.8125 19.5433V0.429688H85.4526V19.5433H81.8125Z" fill="black"/>
<path d="M92.4788 19.999C91.2865 19.999 90.2317 19.5909 89.3138 18.7742C88.3958 17.9575 87.6815 16.7934 87.1713 15.2812C86.6615 13.7689 86.4062 12.0039 86.4062 9.98616C86.4062 7.96845 86.6626 6.21918 87.1754 4.71129C87.6881 3.2034 88.4035 2.04112 89.3215 1.22482C90.2394 0.408516 91.292 0 92.4784 0C93.6648 0 94.7174 0.408516 95.6354 1.22482C96.5533 2.04149 97.2687 3.2034 97.7814 4.71129C98.2938 6.21918 98.5506 7.97722 98.5506 9.98616C98.5506 11.9951 98.2949 13.7689 97.7836 15.2812C97.2723 16.7934 96.5566 17.9579 95.6372 18.7742C94.7177 19.5909 93.6648 19.999 92.4784 19.999H92.4788ZM92.4788 14.8448C92.9429 14.8448 93.347 14.6748 93.6908 14.335C94.0342 13.9949 94.3019 13.4639 94.4939 12.7408C94.6856 12.0185 94.7818 11.1002 94.7818 9.98616C94.7818 8.88093 94.6856 7.96918 94.4939 7.25126C94.3019 6.53297 94.0342 6.00413 93.6908 5.66401C93.347 5.32425 92.9429 5.15382 92.4788 5.15382C92.0147 5.15382 91.6105 5.32425 91.2668 5.66401C90.923 6.00377 90.6553 6.53297 90.4636 7.25126C90.2716 7.96955 90.1754 8.88093 90.1754 9.98616C90.1754 11.1002 90.2716 12.0185 90.4636 12.7408C90.6553 13.4635 90.923 13.9949 91.2668 14.335C91.6105 14.6748 92.0143 14.8448 92.4788 14.8448Z" fill="black"/>
<path d="M99.5 19.5437V0.430056H103.285L105.653 7.22196C105.895 7.91977 106.155 8.74119 106.435 9.68513C106.714 10.6291 106.99 11.6132 107.264 12.6376C107.288 12.7272 107.312 12.8179 107.336 12.9094C107.361 13.0012 107.385 13.0919 107.409 13.1811L106.91 16.1073C106.894 15.8118 106.879 15.5188 106.867 15.2281C106.855 14.9373 106.844 14.6488 106.833 14.3624C106.782 13.0513 106.75 11.8246 106.737 10.6814C106.723 9.53811 106.717 8.37619 106.717 7.1949V0.429688H110.26V19.5433H106.475L104.059 12.7517C103.758 11.9106 103.496 11.1535 103.272 10.4798C103.048 9.80691 102.829 9.11313 102.617 8.39923C102.405 7.6857 102.193 6.91731 101.981 6.09406L102.85 5.47671C102.907 6.45211 102.949 7.35143 102.977 8.17468C103.005 8.99793 103.023 9.75644 103.031 10.4499C103.04 11.1436 103.044 11.9197 103.044 12.7788V19.5437H99.5Z" fill="black"/>
</g>
<defs>
<clipPath id="clip0_5401_992">
<rect width="110" height="20" fill="white" transform="translate(0.90625)"/>
</clipPath>
</defs>
</svg>
