<svg width="71" height="20" viewBox="0 0 71 20" fill="none" xmlns="http://www.w3.org/2000/svg">
<g clip-path="url(#clip0_5401_984)">
<path d="M6.18551 19.9998C5.04189 19.9998 4.08258 19.7214 3.30834 19.1644C2.5341 18.6074 1.9493 17.8255 1.55468 16.8187C1.16006 15.8118 0.94392 14.6261 0.90625 13.2616H4.48598C4.5156 13.8391 4.60265 14.2875 4.74748 14.6071C4.89267 14.9271 5.08797 15.1499 5.33337 15.2749C5.57914 15.4004 5.88452 15.4629 6.24951 15.4629C6.59842 15.4629 6.88295 15.415 7.10349 15.3185C7.32365 15.2223 7.48567 15.0782 7.59063 14.8858C7.69523 14.6934 7.74753 14.4473 7.74753 14.1478C7.74753 13.8614 7.69706 13.6219 7.59649 13.4295C7.49591 13.2371 7.32804 13.0729 7.09325 12.9361C6.85845 12.7997 6.53405 12.6845 6.12078 12.5905L4.73541 12.2683C4.02151 12.103 3.39868 11.7753 2.86691 11.2852C2.33551 10.7951 1.92078 10.1295 1.62271 9.28836C1.32501 8.44755 1.17579 7.43632 1.17579 6.25502C1.17579 5.12748 1.31916 4.09979 1.60662 3.17121C1.89408 2.243 2.39915 1.48229 3.12255 0.889444C3.84596 0.296601 4.82391 0 6.05605 0C7.0735 0 7.94392 0.22053 8.6677 0.660865C9.3911 1.10157 9.95871 1.7895 10.3709 2.72466C10.7831 3.65946 11.0241 4.85429 11.0936 6.30841H7.72742C7.69779 5.90575 7.62977 5.57148 7.52371 5.30523C7.41764 5.03898 7.25636 4.83527 7.04058 4.69446C6.82444 4.55329 6.53917 4.48307 6.18478 4.48307C5.86002 4.48307 5.59486 4.53245 5.38933 4.63083C5.18379 4.72921 5.0342 4.87038 4.94058 5.05397C4.84622 5.23757 4.79941 5.45883 4.79941 5.71813C4.79941 5.96865 4.84183 6.18041 4.92632 6.3523C5.0108 6.52456 5.13953 6.66573 5.31289 6.77545C5.48624 6.88517 5.71226 6.97111 5.99168 7.03365L7.26404 7.32879C8.22261 7.55262 9.00709 7.91066 9.61786 8.40293C10.2286 8.8952 10.6814 9.53814 10.9769 10.3321C11.272 11.1265 11.4198 12.0938 11.4198 13.2349C11.4198 14.6133 11.2212 15.81 10.824 16.8252C10.4265 17.8412 9.83656 18.6243 9.05427 19.1743C8.27162 19.7247 7.31524 19.9998 6.18515 19.9998H6.18551Z" fill="black"/>
<path d="M12.2578 19.5433V0.429688H17.8472C18.7787 0.429688 19.5829 0.709465 20.2592 1.26866C20.9358 1.82786 21.4518 2.62002 21.8077 3.64442C22.1631 4.66882 22.3413 5.8706 22.3413 7.24829C22.3413 8.62598 22.1635 9.82776 21.8077 10.8522C21.4518 11.8766 20.9358 12.6687 20.2592 13.2279C19.5829 13.7871 18.7787 14.0669 17.8472 14.0669H15.8983V19.5433H12.2578ZM17.3641 9.07363C17.6245 9.07363 17.8476 9.00561 18.0326 8.86882C18.2177 8.73241 18.3592 8.5276 18.4572 8.25513C18.5549 7.98194 18.6043 7.64657 18.6043 7.24829C18.6043 6.85002 18.5549 6.51464 18.4572 6.24144C18.3592 5.96861 18.2173 5.76381 18.0326 5.62776C17.8472 5.49098 17.6245 5.42295 17.3641 5.42295H15.8983V9.07363H17.3641Z" fill="black"/>
<path d="M23.2578 19.5433V0.429688H32.6643V5.63763H26.8979V14.3353H32.6643V19.5433H23.2578ZM25.3037 12.5367V7.51637H32.2298V12.5367H25.3037Z" fill="black"/>
<path d="M39.077 19.9998C37.9711 19.9998 36.9865 19.5872 36.1234 18.7618C35.2603 17.936 34.5863 16.7649 34.1017 15.2482C33.6171 13.7316 33.375 11.9688 33.375 9.95983C33.375 7.95089 33.616 6.18919 34.0977 4.68788C34.5797 3.18694 35.2669 2.03015 36.1593 1.21823C37.0516 0.405954 38.0995 0 39.3023 0C40.3571 0 41.2699 0.317817 42.0405 0.953084C42.8107 1.58835 43.4292 2.48548 43.8948 3.6441C44.3603 4.80309 44.6792 6.17456 44.8511 7.75816H41.098C41.0172 7.1719 40.8907 6.68548 40.7173 6.29817C40.544 5.91087 40.3322 5.62377 40.081 5.43579C39.8297 5.24781 39.5433 5.15382 39.2211 5.15382C38.7943 5.15382 38.4257 5.32607 38.1159 5.67095C37.8058 6.01547 37.5662 6.54541 37.3973 7.2615C37.2283 7.97722 37.1434 8.87655 37.1434 9.95946C37.1434 11.0555 37.2327 11.9684 37.4115 12.6973C37.59 13.4266 37.8383 13.9667 38.1565 14.3182C38.4747 14.6693 38.8455 14.8448 39.2698 14.8448C39.5733 14.8448 39.8491 14.7556 40.0974 14.5764C40.3457 14.3976 40.5568 14.1189 40.7316 13.7407C40.906 13.3629 41.0322 12.8805 41.1101 12.2946H44.8226C44.6719 13.7755 44.3355 15.0997 43.8121 16.2675C43.2884 17.4353 42.6184 18.3492 41.8024 19.0094C40.9861 19.6691 40.0773 19.999 39.0763 19.999L39.077 19.9998Z" fill="black"/>
<path d="M45.7031 19.5433V0.429688H49.3432V19.5433H45.7031Z" fill="black"/>
<path d="M49.75 19.5433L53.6318 0.429688H58.0772L62.1847 19.5433H58.4159L56.7727 10.4429C56.6169 9.57943 56.4735 8.77191 56.3419 8.01997C56.2106 7.26841 56.091 6.57608 55.9838 5.94265C55.8763 5.30957 55.7742 4.69771 55.6777 4.10706H56.0643C55.9809 4.67102 55.8898 5.25691 55.7903 5.86548C55.6912 6.47405 55.5749 7.16198 55.4422 7.92964C55.3094 8.6973 55.1675 9.50775 55.0176 10.3625L53.3908 19.5433H49.7507H49.75ZM52.8265 17.0465V12.3487H59.1247V17.0465H52.8265Z" fill="black"/>
<path d="M62.6094 19.5433V0.429688H66.2495V14.3353H71.1783V19.5433H62.6094Z" fill="black"/>
</g>
<defs>
<clipPath id="clip0_5401_984">
<rect width="70" height="20" fill="white" transform="translate(0.90625)"/>
</clipPath>
</defs>
</svg>
